<?xml version="1.0" encoding="UTF-8"?>
<svg version="1.1" xmlns="http://www.w3.org/2000/svg" width="256" height="256">
<path d="M0 0 C9.72525746 6.1137919 17.75063617 12.73872805 21.33984375 23.94140625 C23.66102137 34.69573807 22.24278494 43.8040304 16.71484375 53.1796875 C11.93194819 60.24078679 5.21513427 64.79205834 -3 67 C-17.35695984 68.50213664 -26.51877284 65.45172197 -38 56.5 C-41.76494135 53.28920586 -44.65570479 50.35369111 -47 46 C-48.4589426 46.47730838 -49.91713496 46.95691042 -51.375 47.4375 C-52.18710938 47.70433594 -52.99921875 47.97117188 -53.8359375 48.24609375 C-56.01031799 48.95179729 -56.01031799 48.95179729 -58 50 C-57.50989499 54.32926093 -56.89668875 58.54974263 -56.015625 62.81640625 C-54.81142055 69.35764921 -54.52487701 75.90711108 -54.22396851 82.53656006 C-53.31980286 101.61632323 -51.90687205 120.36172547 -38.25 135.02734375 C-34.57909906 138.24575517 -30.44697797 140.07884428 -26 142 C-21.46020761 144.3644752 -21.46020761 144.3644752 -19.6875 146.8125 C-18.74153145 149.82239992 -18.55927725 151.85198036 -19 155 C-22.34296904 159.65027537 -25.89436078 162.59132717 -30.875 165.4375 C-31.52049805 165.81511475 -32.16599609 166.19272949 -32.83105469 166.58178711 C-37.53680391 169.28435188 -42.34428493 171.74460687 -47.25 174.0625 C-47.88147949 174.36148193 -48.51295898 174.66046387 -49.16357422 174.96850586 C-51.97018685 176.24928611 -53.87599455 177 -57 177 C-56.67 177.639375 -56.34 178.27875 -56 178.9375 C-54.1522625 184.59619609 -54.17348892 189.83745859 -56.625 195.3125 C-59.36750509 200.06240572 -62.45411047 202.22972376 -67.75 203.83203125 C-81.6366104 207.28666595 -95.44500408 208.38575974 -109.6875 208.3125 C-110.42613281 208.31067719 -111.16476563 208.30885437 -111.92578125 208.30697632 C-149.12922218 208.15286556 -149.12922218 208.15286556 -163.19140625 194.99609375 C-178.16522 178.46991918 -180.04565391 153.69656101 -180.28125 132.48828125 C-180.30939212 130.52266661 -180.33753889 128.55705202 -180.36594391 126.59144115 C-180.41426579 123.16517401 -180.45689953 119.73883613 -180.5 116.3125 C-180.55150674 112.23719521 -180.60423185 108.1619235 -180.66296387 104.0867157 C-180.69902036 101.55894453 -180.73157187 99.03111985 -180.7598877 96.50325012 C-180.11971441 76.14610023 -180.11971441 76.14610023 -189.1875 59.0625 C-190.17715083 58.01699097 -191.1667341 56.97141798 -192.15625 55.92578125 C-193.84721345 54.17450677 -195.55519735 52.44765469 -197.28125 50.73046875 C-200.26304487 47.63257941 -202.43597326 45.26526745 -202.875 40.875 C-201.71218551 35.72539295 -199.25928525 33.86849823 -195 31 C-195.17917969 30.41992188 -195.35835937 29.83984375 -195.54296875 29.2421875 C-196.61945884 25.288533 -197.16032726 22.66597478 -196.1875 18.625 C-190.06576918 11.27892302 -176.60926861 11.30867346 -167.6875 10.375 C-162.81743 9.99452578 -158.00240297 10.0178499 -153.1237793 10.08642578 C-144.04565268 10.20568611 -135.36133338 9.83637421 -126.375 8.5 C-95.82611675 4.08747041 -95.82611675 4.08747041 -85.078125 11.37109375 C-84.39234375 11.90863281 -83.7065625 12.44617188 -83 13 C-81.948125 13.7425 -80.89625 14.485 -79.8125 15.25 C-71.78151665 23.10251705 -66.4142051 31.73697314 -62 42 C-62 42.66 -62 43.32 -62 44 C-58.37 42.35 -54.74 40.7 -51 39 C-51.03480469 38.03320312 -51.06960937 37.06640625 -51.10546875 36.0703125 C-51.37891093 22.9190457 -49.59274905 14.03938135 -40.40625 4.3125 C-29.54359259 -5.93529001 -12.87613484 -7.45350245 0 0 Z M-40 13 C-44.1607354 19.21824192 -45.60099881 25.54761471 -45 33 C-42.44239978 42.54930081 -38.77640689 48.93212872 -30.09765625 53.9609375 C-23.49692499 57.23057347 -17.17004564 57.64878508 -10 56 C-1.88188987 53.18475105 3.8142461 48.55231393 8.09375 41.09375 C11.30655238 33.83519648 11.01192661 25.96102641 8.25 18.625 C4.59047798 10.62452773 -0.32230911 7.05033443 -8 3 C-20.69030815 -1.23010272 -31.46785376 3.59448446 -40 13 Z M-196 40 C-195.81762313 42.70249366 -195.22337978 43.78069092 -193.28515625 45.68359375 C-192.18494141 46.55177734 -192.18494141 46.55177734 -191.0625 47.4375 C-168.56367874 66.75791635 -159.68721054 97.73736467 -150.49316406 124.82836914 C-145.64531793 139.07983354 -140.62364231 152.55350595 -132 165 C-131.35417969 165.94101563 -130.70835937 166.88203125 -130.04296875 167.8515625 C-128.2310367 170.16598702 -128.2310367 170.16598702 -125.84375 170.4453125 C-117.63631034 169.32362908 -109.91796168 166.61197445 -103 162 C-100.125 161.5625 -100.125 161.5625 -97 162 C-94.4375 164.25 -94.4375 164.25 -92 167 C-85.28217556 173.01068503 -78.0076338 175.21471113 -69.12475586 175.16333008 C-55.90280629 174.14695822 -35.71304457 162.69989253 -26 154 C-25.67 153.01 -25.34 152.02 -25 151 C-27.50568587 148.08382634 -30.20588271 146.86830593 -33.6875 145.3125 C-44.28736801 140.08289081 -49.65139831 132.89086003 -54 122 C-56.96060975 113.10871192 -58.95445658 104.52632657 -59.4296875 95.16015625 C-59.50316406 93.84853516 -59.57664063 92.53691406 -59.65234375 91.18554688 C-59.76443962 89.13943338 -59.87348351 87.09334154 -59.97412109 85.04663086 C-60.02538485 68.34912072 -60.02538485 68.34912072 -66 54 C-67.73202093 55.39229003 -69.46048484 56.78900556 -71.1875 58.1875 C-72.15042969 58.96480469 -73.11335938 59.74210937 -74.10546875 60.54296875 C-76.89849697 62.91383886 -79.52021917 65.30261501 -82 68 C-82 68.66 -82 69.32 -82 70 C-81.21625 70.61875 -80.4325 71.2375 -79.625 71.875 C-76.51781622 74.39033925 -75.21187034 76.2302595 -74.734375 80.21875 C-74.73953125 80.9715625 -74.7446875 81.724375 -74.75 82.5 C-74.74226563 83.62921875 -74.74226563 83.62921875 -74.734375 84.78125 C-75.03944271 87.32946266 -75.57127576 88.8659562 -77 91 C-81.01782664 93.6728762 -85.33364608 93.71196209 -90 93 C-93.03215675 90.80168636 -93.81654398 89.55036806 -95 86 C-95.27345588 81.16894608 -94.75882047 77.50697746 -93 73 C-101.80786703 74.5728334 -107.92959026 78.96670934 -113.5546875 85.8828125 C-117.93182804 92.29473189 -121.2787843 99.42665092 -123 107 C-124.32 107 -125.64 107 -127 107 C-126.25671594 94.11640965 -119.9388688 83.41643856 -110.6875 74.6875 C-105.32550329 70.36911339 -99.18217498 67.9489514 -92.3125 67.75 C-89.49111741 67.54210865 -88.3281072 67.28342877 -86.1640625 65.4140625 C-84.99505212 64.03346653 -83.8574466 62.62576436 -82.75 61.1953125 C-78.44134766 55.79026202 -72.82777679 51.64236049 -67 48 C-70.80785921 34.3365052 -79.34796076 23.00858033 -91 14.875 C-115.88289552 2.62896765 -177.31152324 21.31152324 -196 40 Z M-179.75 18.4375 C-180.90048828 18.63956055 -180.90048828 18.63956055 -182.07421875 18.84570312 C-186.15602311 19.53634687 -186.15602311 19.53634687 -190 21 C-189.67 22.98 -189.34 24.96 -189 27 C-185.56506424 26.40227336 -182.55768504 25.52472216 -179.35546875 24.15234375 C-178.51435547 23.79462891 -177.67324219 23.43691406 -176.80664062 23.06835938 C-175.94232422 22.69517578 -175.07800781 22.32199219 -174.1875 21.9375 C-173.30384766 21.56044922 -172.42019531 21.18339844 -171.50976562 20.79492188 C-169.33798876 19.86751446 -167.16818633 18.93576366 -165 18 C-165 17.67 -165 17.34 -165 17 C-170.09021536 16.81357491 -174.77055126 17.51933407 -179.75 18.4375 Z M-87 75 C-89.43020113 79.10814156 -89.43020113 79.10814156 -89.8125 83.75 C-89.12181441 86.16145701 -89.12181441 86.16145701 -87 88 C-83.90073181 87.67801034 -83.90073181 87.67801034 -81 87 C-79.76020415 81.82644749 -79.76020415 81.82644749 -81.75 77.0625 C-83.85986393 74.66213769 -83.85986393 74.66213769 -87 75 Z M-175 80 C-174.93797761 87.85171504 -174.86032086 95.70312023 -174.76428509 103.55448437 C-174.72011837 107.20272175 -174.68075574 110.85086105 -174.65356445 114.49926758 C-175.37990714 156.29758352 -175.37990714 156.29758352 -156.8671875 192.125 C-151.97430494 196.21660911 -147.21704037 198.65628656 -141 200 C-140.06027344 200.20367187 -139.12054688 200.40734375 -138.15234375 200.6171875 C-117.33768019 204.17150432 -82.01182071 207.08510664 -63.5625 194.3125 C-61.16301046 190.76125548 -61 188.30790859 -61 184 C-62.91666921 181.74934898 -62.91666921 181.74934898 -65 180 C-65.64026123 180.176521 -66.28052246 180.35304199 -66.94018555 180.53491211 C-69.8554659 181.33757101 -72.77147241 182.13756023 -75.6875 182.9375 C-76.69490234 183.21529297 -77.70230469 183.49308594 -78.74023438 183.77929688 C-79.71669922 184.04677734 -80.69316406 184.31425781 -81.69921875 184.58984375 C-82.59471436 184.83597412 -83.49020996 185.08210449 -84.4128418 185.33569336 C-95.92950056 188.29283486 -109.51110813 189.06570602 -120.359375 183.671875 C-144.00253717 168.70253564 -151.98368709 137.86524386 -160.43017578 112.90527344 C-164.2799736 101.54015231 -168.53691047 90.68800622 -174 80 C-174.33 80 -174.66 80 -175 80 Z " fill="#000000" transform="translate(218,26)"/>
<path d="M0 0 C-0.49871064 4.45673159 -2.02004362 6.57687178 -5.0625 9.8125 C-5.79597656 10.60269531 -6.52945313 11.39289062 -7.28515625 12.20703125 C-7.85105469 12.79871094 -8.41695312 13.39039063 -9 14 C-6.35130703 16.80449844 -4.00546627 18.99669961 -0.6875 21 C0.199375 21.66 1.08625 22.32 2 23 C2.375 25.75 2.375 25.75 2 28 C1.01 28.33 0.02 28.66 -1 29 C-4.68227637 27.15886182 -7.56807341 25.37165776 -10.6875 22.6875 C-12.77967956 20.78573588 -12.77967956 20.78573588 -14.8984375 21.109375 C-18.5665625 22.66389637 -20.49411112 25.99746566 -22.90234375 29.06640625 C-25 31 -25 31 -27.75390625 31.27734375 C-28.86572266 31.14005859 -28.86572266 31.14005859 -30 31 C-30.80859375 29.359375 -30.80859375 29.359375 -31 27 C-29.39980088 24.8584251 -27.92088623 23.13178166 -26.0625 21.25 C-24.391875 19.5175 -22.72125 17.785 -21 16 C-24.96 13.03 -28.92 10.06 -33 7 C-32.67 5.35 -32.34 3.7 -32 2 C-27.24583878 2.49493467 -24.44779417 3.72123406 -20.625 6.5625 C-19.75101563 7.20316406 -18.87703125 7.84382813 -17.9765625 8.50390625 C-17.32429687 8.99761719 -16.67203125 9.49132813 -16 10 C-13.07648458 7.82824569 -10.59700829 5.6341397 -8.3125 2.8125 C-5.28010941 -0.87554261 -4.40456895 -1.32137068 0 0 Z " fill="#000000" transform="translate(216,40)"/>
</svg>
